#!OML:ASF E:/inclinewalkrobotboard/Project1/Captureday1/Session1/subject1.ASF
:FULLY-SPECIFIED
:DEGREES
251
root 0 0 0 -0.38601202892607833 -2.0321358576676185 -3.884955585913695
lowerback 16.51727953961989 1.0980029578319606 -0.1215920330307888
upperback 0.6669067174293708 1.4381318193262271 0.32622901417409933
thorax -8.618278006007744 0.6809460871758262 0.050828535830379606
lowerneck -7.466887034092609 -3.260406597081299 1.313991355359724
upperneck -5.986976237499228 -4.229613068118188 1.7289707224769297
head -0.7309246740658102 -2.193523605463198 0.23628316023782048
rclavicle -3.7980034657013594E-16 1.787089100312817E-17
rhumerus 12.09308238336395 0.5223957179193075 -39.436757501077466
rradius 118.80434728994771
rwrist -30.813708434186566
rhand -11.668622140893678 -36.627037684627865
rfingers 7.125019999999964
rthumb 14.41413385250746 -66.04073641468847
lclavicle -3.989455830250325E-16 -4.571489646387655E-16
lhumerus -43.41731912265591 -0.38557004011593343 83.16313466209823
lradius 45.37399032809501
lwrist 1.9028723957930418
lhand -15.500857063505915 -12.469949822138991
lfingers 7.125019999999935
lthumb 10.636631743605157 16.679157947744777
rfemur -2.7460530555846736 1.021505005015286 5.490511837233088
rtibia 8.222342479517911
rfoot -1.5475900733004666 -1.3392928477186405
rtoes 0.7866278568008633
lfemur -6.494721914347686 -3.584211237301205 -12.193158018347383
ltibia 27.36670383213265
lfoot -19.344997225758792 8.03814560204032
ltoes -43.5311630023605
252
root 0 0 0 -0.3859465502018208 -2.032221653059975 -3.885069839165957
lowerback 16.518176749762716 1.0978142098222974 -0.12174262995290208
upperback 0.6663004444248772 1.4378523730284167 0.3261240775241677
thorax -8.619388842000069 0.6808005925410131 0.050795888470867134
lowerneck -7.467054476930348 -3.2602452213070348 1.3146679945550805
upperneck -5.992842309980372 -4.22926945475668 1.728310226026375
head -0.7328494351754635 -2.19344676401501 0.23605380801607623
rclavicle -3.798165055003863E-16 1.79025369250402E-17
rhumerus 12.093686522538647 0.5231678326441429 -39.43603516720189
rradius 118.80642563654277
rwrist -30.81461552969854
rhand -11.668311264422817 -36.62902866733083
rfingers 7.125019999999964
rthumb 14.414427296204408 -66.04266653248737
lclavicle -3.9869257011929106E-16 -4.569654448177793E-16
lhumerus -43.41961576766191 -0.38546650978427643 83.16349106417533
lradius 45.37712682140444
lwrist 1.901639452335404
lhand -15.498284454299892 -12.478061831405503
lfingers 7.125019999999935
lthumb 10.639075015126961 16.67136224320467
rfemur -2.7451750075314028 1.0211684169245492 5.4887374682019345
rtibia 8.219733787674247
rfoot -1.5470791737887017 -1.3388498694122992
rtoes 0.7863682202467162
lfemur -6.494359787575351 -3.5844645639416903 -12.192386823005222
ltibia 27.365980665712467
lfoot -19.346418446336894 8.039379116456649
ltoes -43.535278401654026
253
root 0 0 0 -0.38588021283774976 -2.0323055764717606 -3.8851860592751244
lowerback 16.519053121041757 1.0976325068828192 -0.12188760895756645
upperback 0.6657022208806569 1.4375830910306702 0.32601929311639744
thorax -8.620479650410031 0.680660166923516 0.05075977466786963
lowerneck -7.467216226289813 -3.260089026477468 1.3153311235664904
upperneck -5.998598206847959 -4.228937090219078 1.727668750083593
head -0.7347388804443957 -2.1933729804331357 0.23583075749647667
rclavicle -3.7983306197759594E-16 1.7933624772096128E-17
rhumerus 12.094290321909511 0.5239226283652485 -39.435318548582806
rradius 118.8084756301681
rwrist -30.815509516253407
rhand -11.668008134583296 -36.630978796176635
rfingers 7.125019999999964
rthumb 14.414713433844378 -66.04455698207194
lclavicle -3.984414021393866E-16 -4.567838859498153E-16
lhumerus -43.421883618191444 -0.38536206160869146 83.1638439106064
lradius 45.3802201513777
lwrist 1.9004189798029196
lhand -15.495743795550132 -12.486072705785817
lfingers 7.125019999999936
lthumb 10.641488306858417 16.66366327535608
rfemur -2.744303825120367 1.0208343483490245 5.486976496886367
rtibia 8.217144732068567
rfoot -1.546572318057473 -1.3384103599906005
rtoes 0.7861101942123803
lfemur -6.4939971282789966 -3.584718474465041 -12.191615167917199
ltibia 27.36525528223377
lfoot -19.347841013886672 8.040613753192954
ltoes -43.539395774342694
254
root 0 0 0 -0.3858138170745051 -2.0323883824936457 -3.885301606591809
lowerback 16.519913732046437 1.097453447262449 -0.12203014328962081
upperback 0.6651106228639236 1.4373176997806079 0.3259157156525472
thorax -8.621554995780823 0.6805217669590902 0.05072370415600469
lowerneck -7.467374817842288 -3.259934287360514 1.3159859851065723
upperneck -6.00427210377579 -4.228608833268154 1.7270365313088216
head -0.7366015932794987 -2.1932998292820827 0.23561085943480647
rclavicle -3.79849780776259E-16 1.796399220352642E-17
rhumerus 12.094882427462231 0.5246584382400634 -39.434617107176734
rradius 118.81048005836436
rwrist -30.816382633678426
rhand -11.667712624692557 -36.632882778441314
rfingers 7.125019999999964
rthumb 14.414992375790476 -66.04640266653584
lclavicle -3.981920812941055E-16 -4.566043670287132E-16
lhumerus -43.42412425881963 -0.38525727775163365 83.16419288914518
lradius 45.383273457794125
lwrist 1.8992112761262465
lhand -15.493233684849894 -12.493986941521001
lfingers 7.125019999999936
lthumb 10.643872827561493 16.656056636192076
rfemur -2.743435989888672 1.020501338554724 5.485221403281852
rtibia 8.214564855800779
rfoot -1.5460670684583784 -1.3379724538069975
rtoes 0.7858527241284656
lfemur -6.493634624781879 -3.584972293779791 -12.190845254111958
ltibia 27.364529726929028
lfoot -19.34926097795227 8.041846005127484
ltoes -43.54350373152535
